# xmcd
#
# Track frame offsets: 
#        150
#        24217
#        47670
#        94460
#        117217
#        141012
#        169055
#
# Disc length: 2583 seconds
#
# Revision: 1
# Processed by: cddbd v1.5.1PL0 Copyright (c) Steve Scherf et al.
# Submitted via: ExactAudioCopy v0.95b2
#
DISCID=540a1507
DTITLE=Harold Land and Blue Mitchell Quintet - Mapenzi
DYEAR=1977
DGENRE=Jazz
TTITLE0=Mapenzi
TTITLE1=Rapture
TTITLE2=Habiba
TTITLE3=Blue Silver
TTITLE4=Everything's Changed
TTITLE5=Inner Voice
TTITLE6=Tres Senderos
EXTD=YEAR: 1977
EXTT0=
EXTT1=
EXTT2=
EXTT3=
EXTT4=
EXTT5=
EXTT6=
PLAYORDER=
